<?xml version="1.0" encoding="iso-8859-1"?>
<!-- Generator: Adobe Illustrator 19.0.0, SVG Export Plug-In . SVG Version: 6.00 Build 0)  -->
<svg version="1.1" id="Layer_1" xmlns="http://www.w3.org/2000/svg" xmlns:xlink="http://www.w3.org/1999/xlink" x="0px" y="0px"
	 viewBox="0 0 504.236 504.236" style="enable-background:new 0 0 504.236 504.236;" xml:space="preserve">
<g transform="translate(1 1)">
	<g>
		<path style="fill:#FFDD09;" d="M326.659,83.564h-8.393c-5.036,0-8.393-3.357-8.393-8.393c0-5.036,3.357-8.393,8.393-8.393h8.393
			c5.036,0,8.393,3.357,8.393,8.393C335.052,80.207,331.695,83.564,326.659,83.564z M293.085,83.564h-8.393
			c-5.036,0-8.393-3.357-8.393-8.393c0-5.036,3.357-8.393,8.393-8.393h8.393c5.036,0,8.393,3.357,8.393,8.393
			C301.479,80.207,298.121,83.564,293.085,83.564z M259.511,83.564h-8.393c-5.036,0-8.393-3.357-8.393-8.393
			c0-5.036,3.357-8.393,8.393-8.393h8.393c5.036,0,8.393,3.357,8.393,8.393C267.905,80.207,264.548,83.564,259.511,83.564z
			 M225.938,83.564h-8.393c-5.036,0-8.393-3.357-8.393-8.393c0-5.036,3.357-8.393,8.393-8.393h8.393
			c5.036,0,8.393,3.357,8.393,8.393C234.331,80.207,230.974,83.564,225.938,83.564z M192.364,83.564h-8.393
			c-5.036,0-8.393-3.357-8.393-8.393c0-5.036,3.357-8.393,8.393-8.393h8.393c5.036,0,8.393,3.357,8.393,8.393
			C200.757,80.207,197.4,83.564,192.364,83.564z"/>
		<path style="fill:#FFDD09;" d="M326.659,58.384c-0.839,0-1.679,0-2.518-0.839l-7.554-2.518c-4.197-1.679-6.715-5.875-5.036-10.911
			c1.679-5.036,5.875-6.715,10.911-5.036l6.715,3.357c4.197,1.679,6.715,5.875,5.036,10.911
			C333.374,56.705,330.016,58.384,326.659,58.384z M294.764,48.311c-0.839,0-1.679,0-2.518-0.839l-7.554-2.518
			c-4.197-1.679-6.715-5.875-5.036-10.911c1.679-4.197,5.875-6.715,10.911-5.036l7.554,2.518c3.357,1.679,5.875,5.875,5.036,10.911
			C301.479,45.793,298.121,48.311,294.764,48.311z M262.869,37.4c-0.839,0-1.679,0-2.518-0.839l-8.393-2.518
			c-4.197-1.679-6.715-5.875-5.036-10.911c1.679-4.197,5.875-6.715,10.911-5.036l7.554,2.518c4.197,1.679,6.715,5.875,5.036,10.911
			C269.584,34.882,266.226,37.4,262.869,37.4z M230.974,26.489c-0.839,0-1.679,0-2.518-0.839l-5.036-1.679
			c-4.197-1.679-6.715-5.875-5.036-10.911c1.679-4.197,5.875-6.715,10.911-5.036l5.036,1.679c4.197,1.679,6.715,5.875,5.036,10.911
			C237.689,24.81,234.331,26.489,230.974,26.489z"/>
		<path style="fill:#FFDD09;" d="M225.938,142.318c-3.357,0-6.715-2.518-7.554-5.875c-1.679-4.197,0.839-9.233,5.036-10.911
			l5.036-1.679c4.197-1.679,9.233,0.839,10.911,5.036c1.679,4.197-0.839,9.233-5.036,10.911l-5.036,1.679
			C227.616,142.318,226.777,142.318,225.938,142.318z M255.315,133.085c-3.357,0-6.715-2.518-7.554-5.875
			c-1.679-4.197,0.839-9.233,5.036-10.911l7.554-2.518c4.197-1.679,9.233,0.839,10.911,5.036s-0.839,9.233-5.036,10.911
			l-7.554,2.518C256.993,132.246,256.154,133.085,255.315,133.085z M287.21,122.174c-3.357,0-6.715-2.518-7.554-5.875
			c-1.679-4.197,0.839-9.233,5.036-10.911l7.554-2.518c4.197-1.679,9.233,0.839,10.911,5.036c1.679,4.197-0.839,9.233-5.036,10.911
			l-7.554,2.518C288.889,122.174,288.049,122.174,287.21,122.174z M319.105,111.262c-3.357,0-6.715-2.518-7.554-5.875
			c-1.679-4.197,0.839-9.233,5.036-10.911l7.554-2.518c4.197-1.679,9.233,0.839,10.911,5.036c1.679,4.197-0.839,9.233-5.036,10.911
			l-7.554,2.518C320.784,111.262,319.944,111.262,319.105,111.262z"/>
		<path style="fill:#FFDD09;" d="M225.938,494.843H7.708V372.298c0-34.413,27.698-61.272,61.272-61.272h94.846
			c34.413,0,61.272,27.698,61.272,61.272v122.544H225.938z"/>
	</g>
	<path style="fill:#FFFFFF;" d="M94.161,310.187H68.98c-34.413,0-61.272,27.698-61.272,61.272v123.384h25.18V372.298
		C32.889,337.885,60.587,310.187,94.161,310.187"/>
	<path style="fill:#54C9FD;" d="M360.233,91.957h33.574V41.597h-33.574V91.957z"/>
	<path style="fill:#33A9F8;" d="M393.807,91.957h16.787V41.597h-16.787V91.957z"/>
	<path style="fill:#FFDD09;" d="M293.085,201.072h159.475c0-46.164-37.77-83.934-83.934-83.934h8.393
		C330.856,117.138,293.085,154.908,293.085,201.072"/>
	<path style="fill:#FD9808;" d="M389.61,117.138h-16.787c-1.679,0-2.518,0-4.197,0c44.485,2.518,79.738,38.61,79.738,83.934h25.18
		C473.544,154.908,435.774,117.138,389.61,117.138"/>
	<path style="fill:#FFDD09;" d="M276.298,494.843h193.049V201.072H276.298V494.843z"/>
	<path style="fill:#FD9808;" d="M469.348,494.843h25.18V201.072h-25.18V494.843z"/>
	<path d="M494.528,503.236h-218.23c-5.036,0-8.393-3.357-8.393-8.393V201.072c0-5.036,3.357-8.393,8.393-8.393h218.23
		c5.036,0,8.393,3.357,8.393,8.393v293.771C502.921,499.879,499.564,503.236,494.528,503.236z M284.692,486.449h201.443V209.466
		H284.692V486.449z"/>
	<path d="M477.741,209.466H293.085c-5.036,0-8.393-3.357-8.393-8.393c0-51.2,41.128-92.328,92.328-92.328h16.787
		c51.2,0,92.328,41.128,92.328,92.328C486.134,206.108,482.777,209.466,477.741,209.466z M302.318,192.679h167.03
		c-4.197-37.77-36.092-67.148-74.702-67.148h-16.787C338.41,125.531,306.515,154.908,302.318,192.679z"/>
	<path d="M385.413,125.531c-5.036,0-8.393-3.357-8.393-8.393v-25.18c0-5.036,3.357-8.393,8.393-8.393
		c5.036,0,8.393,3.357,8.393,8.393v25.18C393.807,122.174,390.449,125.531,385.413,125.531z"/>
	<path d="M410.593,100.351h-50.361c-5.036,0-8.393-3.357-8.393-8.393V41.597c0-5.036,3.357-8.393,8.393-8.393h50.361
		c5.036,0,8.393,3.357,8.393,8.393v50.361C418.987,96.993,415.629,100.351,410.593,100.351z M368.626,83.564H402.2V49.99h-33.574
		V83.564z"/>
	<path d="M377.02,75.17h-16.787c-5.036,0-8.393-3.357-8.393-8.393c0-5.036,3.357-8.393,8.393-8.393h16.787
		c5.036,0,8.393,3.357,8.393,8.393S382.056,75.17,377.02,75.17z"/>
	<path style="fill:#1CD759;" d="M276.298,436.089h109.115V268.22H276.298V436.089z"/>
	<path style="fill:#15A143;" d="M385.413,436.089h25.18V268.22h-25.18V436.089z"/>
	<path d="M410.593,444.482H276.298c-5.036,0-8.393-3.357-8.393-8.393V268.22c0-5.036,3.357-8.393,8.393-8.393h134.295
		c5.036,0,8.393,3.357,8.393,8.393v167.869C418.987,441.125,415.629,444.482,410.593,444.482z M284.692,427.695H402.2V276.613
		H284.692V427.695z"/>
	<path d="M326.659,75.17h-8.393c-5.036,0-8.393-3.357-8.393-8.393c0-5.036,3.357-8.393,8.393-8.393h8.393
		c5.036,0,8.393,3.357,8.393,8.393S331.695,75.17,326.659,75.17z M293.085,75.17h-8.393c-5.036,0-8.393-3.357-8.393-8.393
		c0-5.036,3.357-8.393,8.393-8.393h8.393c5.036,0,8.393,3.357,8.393,8.393S298.121,75.17,293.085,75.17z M259.511,75.17h-8.393
		c-5.036,0-8.393-3.357-8.393-8.393c0-5.036,3.357-8.393,8.393-8.393h8.393c5.036,0,8.393,3.357,8.393,8.393
		S264.548,75.17,259.511,75.17z M225.938,75.17h-8.393c-5.036,0-8.393-3.357-8.393-8.393c0-5.036,3.357-8.393,8.393-8.393h8.393
		c5.036,0,8.393,3.357,8.393,8.393S230.974,75.17,225.938,75.17z M192.364,75.17h-8.393c-5.036,0-8.393-3.357-8.393-8.393
		c0-5.036,3.357-8.393,8.393-8.393h8.393c5.036,0,8.393,3.357,8.393,8.393S197.4,75.17,192.364,75.17z"/>
	<path d="M326.659,49.99c-0.839,0-1.679,0-2.518-0.839l-7.554-2.518c-4.197-1.679-6.715-5.875-5.036-10.911
		c1.679-4.197,5.875-6.715,10.911-5.036l6.715,3.357c4.197,1.679,6.715,5.875,5.036,10.911
		C333.374,48.311,330.016,49.99,326.659,49.99z M294.764,39.918c-0.839,0-1.679,0-2.518-0.839l-7.554-2.518
		c-4.197-1.679-6.715-5.875-5.036-10.911c1.679-4.197,5.875-6.715,10.911-5.036l7.554,2.518c3.357,1.679,5.875,5.875,5.036,10.911
		C301.479,37.4,298.121,39.918,294.764,39.918z M262.869,29.007c-0.839,0-1.679,0-2.518-0.839l-8.393-2.518
		c-4.197-1.679-6.715-5.875-5.036-10.911c1.679-4.197,5.875-6.715,10.911-5.036l7.554,2.518c4.197,1.679,6.715,5.875,5.036,10.911
		C269.584,26.489,266.226,29.007,262.869,29.007z M230.974,18.095c-0.839,0-1.679,0-2.518-0.839l-5.036-1.679
		c-4.197-1.679-6.715-5.875-5.036-10.911s5.875-6.715,10.911-5.036l5.036,1.679c4.197,1.679,6.715,5.875,5.036,10.911
		C237.689,16.416,234.331,18.095,230.974,18.095z"/>
	<path d="M225.938,133.925c-3.357,0-6.715-2.518-7.554-5.875c-1.679-4.197,0.839-9.233,5.036-10.911l5.036-1.679
		c4.197-1.679,9.233,0.839,10.911,5.036c1.679,4.197-0.839,9.233-5.036,10.911l-5.036,1.679
		C227.616,133.925,226.777,133.925,225.938,133.925z M255.315,124.692c-3.357,0-6.715-2.518-7.554-5.875
		c-1.679-4.197,0.839-9.233,5.036-10.911l7.554-2.518c4.197-1.679,9.233,0.839,10.911,5.036c1.679,4.197-0.839,9.233-5.036,10.911
		l-7.554,2.518C256.993,123.852,256.154,124.692,255.315,124.692z M287.21,113.78c-3.357,0-6.715-2.518-7.554-5.875
		c-1.679-4.197,0.839-9.233,5.036-10.911l7.554-2.518c4.197-1.679,9.233,0.839,10.911,5.036c1.679,4.197-0.839,9.233-5.036,10.911
		l-7.554,2.518C288.889,113.78,288.049,113.78,287.21,113.78z M319.105,102.869c-3.357,0-6.715-2.518-7.554-5.875
		c-1.679-4.197,0.839-9.233,5.036-10.911l7.554-2.518c4.197-1.679,9.233,0.839,10.911,5.036c1.679,4.197-0.839,9.233-5.036,10.911
		l-7.554,2.518C320.784,102.869,319.944,102.869,319.105,102.869z"/>
	<path d="M234.331,503.236H-0.685V372.298c0-38.61,31.056-69.666,69.666-69.666h94.846c38.61,0,69.666,31.056,69.666,69.666v130.938
		H234.331z M16.102,486.449h201.443V372.298c0-29.377-23.502-52.879-52.879-52.879H68.98c-29.377,0-52.879,23.502-52.879,52.879
		V486.449z"/>
	<path d="M326.659,318.58h-50.361c-5.036,0-8.393-3.357-8.393-8.393c0-5.036,3.357-8.393,8.393-8.393h50.361
		c5.036,0,8.393,3.357,8.393,8.393C335.052,315.223,331.695,318.58,326.659,318.58z"/>
	<path d="M351.839,360.548h-75.541c-5.036,0-8.393-3.357-8.393-8.393c0-5.036,3.357-8.393,8.393-8.393h75.541
		c5.036,0,8.393,3.357,8.393,8.393C360.233,357.19,356.875,360.548,351.839,360.548z"/>
	<path d="M368.626,402.515h-92.328c-5.036,0-8.393-3.357-8.393-8.393s3.357-8.393,8.393-8.393h92.328
		c5.036,0,8.393,3.357,8.393,8.393S373.662,402.515,368.626,402.515z"/>
</g>
<g>
</g>
<g>
</g>
<g>
</g>
<g>
</g>
<g>
</g>
<g>
</g>
<g>
</g>
<g>
</g>
<g>
</g>
<g>
</g>
<g>
</g>
<g>
</g>
<g>
</g>
<g>
</g>
<g>
</g>
</svg>
